<svg xmlns="http://www.w3.org/2000/svg" width="1042.039" height="709.088" viewBox="0 0 1042.039 709.088">
    <defs>
        <style>
            .cls-1{opacity:.505}.cls-2{fill:#3f3d56}.cls-3{fill:#70bcdb}.cls-4{fill:#2f2e41}.cls-5{fill:#8985a8}.cls-6{opacity:.1}.cls-7{fill:#f2f2f2}.cls-8{fill:#ffb8b8}
        </style>
    </defs>
    <g id="Group_97" class="cls-1" data-name="Group 97">
        <path id="Rectangle_208" d="M0 0h875v470.679H0z" class="cls-2" data-name="Rectangle 208" transform="translate(167.039)"/>
        <path id="Rectangle_209" d="M0 0h7.716v12.346H0z" class="cls-3" data-name="Rectangle 209" transform="translate(876.144 66.358)"/>
        <path id="Rectangle_210" d="M0 0h7.716v12.346H0z" class="cls-3" data-name="Rectangle 210" transform="translate(849.909 63.272)"/>
        <path id="Rectangle_211" d="M0 0h7.716v12.346H0z" class="cls-3" data-name="Rectangle 211" transform="translate(836.021 63.272)"/>
        <path id="Rectangle_212" d="M0 0h7.716v12.346H0z" class="cls-3" data-name="Rectangle 212" transform="translate(836.021 100.309)"/>
        <path id="Rectangle_213" d="M0 0h7.716v12.346H0z" class="cls-3" data-name="Rectangle 213" transform="translate(820.588 81.79)"/>
        <path id="Rectangle_214" d="M0 0h7.716v12.346H0z" class="cls-3" data-name="Rectangle 214" transform="translate(820.588 101.852)"/>
        <path id="Rectangle_215" d="M0 0h7.716v12.346H0z" class="cls-3" data-name="Rectangle 215" transform="translate(836.021 140.432)"/>
        <path id="Rectangle_216" d="M0 0h7.716v12.346H0z" class="cls-3" data-name="Rectangle 216" transform="translate(820.588 160.494)"/>
        <path id="Rectangle_217" d="M0 0h7.716v12.346H0z" class="cls-3" data-name="Rectangle 217" transform="translate(836.021 236.111)"/>
        <path id="Rectangle_218" d="M0 0h7.716v12.346H0z" class="cls-3" data-name="Rectangle 218" transform="translate(849.909 160.494)"/>
        <path id="Rectangle_219" d="M0 0h7.716v12.346H0z" class="cls-3" data-name="Rectangle 219" transform="translate(876.144 86.42)"/>
        <path id="Rectangle_220" d="M0 0h7.716v12.346H0z" class="cls-3" data-name="Rectangle 220" transform="translate(876.144 279.321)"/>
        <path id="Rectangle_221" d="M0 0h7.716v12.346H0z" class="cls-3" data-name="Rectangle 221" transform="translate(876.144 319.444)"/>
        <path id="Rectangle_222" d="M0 0h7.716v12.346H0z" class="cls-3" data-name="Rectangle 222" transform="translate(876.144 339.506)"/>
        <path id="Rectangle_223" d="M0 0h10.802v1.543H0z" class="cls-3" data-name="Rectangle 223" transform="translate(876.144 108.025)"/>
        <path id="Rectangle_224" d="M0 0h10.802v1.543H0z" class="cls-3" data-name="Rectangle 224" transform="translate(834.477 126.543)"/>
        <path id="Rectangle_225" d="M0 0h10.802v1.543H0z" class="cls-3" data-name="Rectangle 225" transform="translate(876.144 206.79)"/>
        <path id="Rectangle_226" d="M0 0h10.802v1.543H0z" class="cls-3" data-name="Rectangle 226" transform="translate(876.144 223.765)"/>
        <path id="Rectangle_227" d="M0 0h10.802v1.543H0z" class="cls-3" data-name="Rectangle 227" transform="translate(834.477 322.531)"/>
        <path id="Rectangle_228" d="M0 0h10.802v1.543H0z" class="cls-3" data-name="Rectangle 228" transform="translate(846.823 359.568)"/>
        <path id="Path_335" d="M165.9 121.914V125h-3.086v6.173h3.086v3.086h-7.716v-12.345z" class="cls-3" data-name="Path 335" transform="translate(717.965)"/>
        <path id="Path_336" d="M192.13 100.309v3.086h-3.086v6.173h3.086v3.086h-7.716v-12.345z" class="cls-3" data-name="Path 336" transform="translate(665.495)"/>
        <path id="Path_337" d="M221.451 120.37v3.087h-3.086v6.173h3.086v3.086h-7.716V120.37z" class="cls-3" data-name="Path 337" transform="translate(606.853)"/>
        <path id="Path_338" d="M221.451 180.556v3.086h-3.086v6.173h3.086v3.085h-7.716v-12.344z" class="cls-3" data-name="Path 338" transform="translate(606.853)"/>
        <path id="Path_339" d="M221.451 200.617v3.083h-3.086v6.173h3.086v3.086h-7.716v-12.342z" class="cls-3" data-name="Path 339" transform="translate(606.853)"/>
        <path id="Path_340" d="M221.451 138.889v3.086h-3.086v6.173h3.086v3.087h-7.716v-12.346z" class="cls-3" data-name="Path 340" transform="translate(606.853)"/>
        <path id="Path_341" d="M206.019 81.79v3.087h-3.087v6.172h3.087v3.087H198.3V81.79z" class="cls-3" data-name="Path 341" transform="translate(637.718)"/>
        <path id="Rectangle_229" d="M0 0h7.716v12.346H0z" class="cls-3" data-name="Rectangle 229" transform="translate(836.021 180.556)"/>
        <path id="Rectangle_230" d="M0 0h7.716v12.346H0z" class="cls-3" data-name="Rectangle 230" transform="translate(836.021 217.593)"/>
        <path id="Path_342" d="M206.019 199.074v3.086h-3.087v6.173h3.087v3.087H198.3v-12.346z" class="cls-3" data-name="Path 342" transform="translate(637.718)"/>
        <path id="Path_343" d="M192.13 120.37v3.087h-3.086v6.173h3.086v3.086h-7.716V120.37z" class="cls-3" data-name="Path 343" transform="translate(665.495)"/>
        <path id="Path_344" d="M192.13 140.432v3.087h-3.086v6.172h3.086v3.087h-7.716v-12.346z" class="cls-3" data-name="Path 344" transform="translate(665.495)"/>
        <path id="Rectangle_231" d="M0 0h7.716v12.346H0z" class="cls-3" data-name="Rectangle 231" transform="translate(849.909 200.617)"/>
        <path id="Path_345" d="M192.13 180.556v3.086h-3.086v6.173h3.086v3.085h-7.716v-12.344z" class="cls-3" data-name="Path 345" transform="translate(665.495)"/>
        <path id="Rectangle_232" d="M0 0h7.716v12.346H0z" class="cls-3" data-name="Rectangle 232" transform="translate(849.909 240.741)"/>
        <path id="Path_346" d="M192.13 220.679v3.086h-3.086v6.173h3.086v3.087h-7.716v-12.346z" class="cls-3" data-name="Path 346" transform="translate(665.495)"/>
        <path id="Rectangle_233" d="M0 0h7.716v12.346H0z" class="cls-3" data-name="Rectangle 233" transform="translate(849.909 280.864)"/>
        <path id="Rectangle_234" d="M0 0h7.716v12.346H0z" class="cls-3" data-name="Rectangle 234" transform="translate(836.021 277.778)"/>
        <path id="Path_347" d="M192.13 260.8v3.087h-3.086v6.173h3.086v3.086h-7.716V260.8z" class="cls-3" data-name="Path 347" transform="translate(665.495)"/>
        <path id="Path_348" d="M221.451 260.8v3.087h-3.086v6.173h3.086v3.086h-7.716V260.8z" class="cls-3" data-name="Path 348" transform="translate(606.853)"/>
        <path id="Rectangle_235" d="M0 0h7.716v12.346H0z" class="cls-3" data-name="Rectangle 235" transform="translate(741.885 81.79)"/>
        <path id="Rectangle_236" d="M0 0h7.716v12.346H0z" class="cls-3" data-name="Rectangle 236" transform="translate(741.885 101.852)"/>
        <path id="Rectangle_237" d="M0 0h7.716v12.346H0z" class="cls-3" data-name="Rectangle 237" transform="translate(741.885 160.494)"/>
        <path id="Path_349" d="M300.154 120.37v3.087h-3.087v6.173h3.087v3.086h-7.716V120.37z" class="cls-3" data-name="Path 349" transform="translate(449.447)"/>
        <path id="Path_350" d="M300.154 180.556v3.086h-3.087v6.173h3.087v3.085h-7.716v-12.344z" class="cls-3" data-name="Path 350" transform="translate(449.447)"/>
        <path id="Path_351" d="M300.154 200.617v3.083h-3.087v6.173h3.087v3.086h-7.716v-12.342z" class="cls-3" data-name="Path 351" transform="translate(449.447)"/>
        <path id="Path_352" d="M300.154 138.889v3.086h-3.087v6.173h3.087v3.087h-7.716v-12.346z" class="cls-3" data-name="Path 352" transform="translate(449.447)"/>
        <path id="Path_353" d="M300.154 260.8v3.087h-3.087v6.173h3.087v3.086h-7.716V260.8z" class="cls-3" data-name="Path 353" transform="translate(449.447)"/>
        <path id="Rectangle_238" d="M0 0h7.716v12.346H0z" class="cls-3" data-name="Rectangle 238" transform="translate(849.909 320.988)"/>
        <path id="Rectangle_239" d="M0 0h7.716v12.346H0z" class="cls-3" data-name="Rectangle 239" transform="translate(836.021 297.839)"/>
        <path id="Rectangle_240" d="M0 0h7.716v12.346H0z" class="cls-3" data-name="Rectangle 240" transform="translate(849.909 373.457)"/>
        <path id="Rectangle_241" d="M0 0h7.716v12.346H0z" class="cls-3" data-name="Rectangle 241" transform="translate(836.021 336.42)"/>
        <path id="Path_354" d="M192.13 300.926v3.086h-3.086v6.173h3.086v3.087h-7.716v-12.346z" class="cls-3" data-name="Path 354" transform="translate(665.495)"/>
        <path id="Path_355" d="M192.13 395.062v3.086h-3.086v6.173h3.086v3.086h-7.716v-12.345z" class="cls-3" data-name="Path 355" transform="translate(665.495)"/>
        <path id="Rectangle_242" d="M0 0h7.716v12.346H0z" class="cls-3" data-name="Rectangle 242" transform="translate(765.033 63.272)"/>
        <path id="Rectangle_243" d="M0 0h7.716v12.346H0z" class="cls-3" data-name="Rectangle 243" transform="translate(765.033 160.494)"/>
        <path id="Rectangle_244" d="M0 0h10.802v1.543H0z" class="cls-3" data-name="Rectangle 244" transform="translate(761.946 359.568)"/>
        <path id="Path_356" d="M277.006 100.309v3.086h-3.087v6.173h3.087v3.086h-7.716v-12.345z" class="cls-3" data-name="Path 356" transform="translate(495.743)"/>
        <path id="Path_357" d="M277.006 120.37v3.087h-3.087v6.173h3.087v3.086h-7.716V120.37z" class="cls-3" data-name="Path 357" transform="translate(495.743)"/>
        <path id="Path_358" d="M277.006 140.432v3.087h-3.087v6.172h3.087v3.087h-7.716v-12.346z" class="cls-3" data-name="Path 358" transform="translate(495.743)"/>
        <path id="Rectangle_245" d="M0 0h7.716v12.346H0z" class="cls-3" data-name="Rectangle 245" transform="translate(765.033 200.617)"/>
        <path id="Path_359" d="M277.006 180.556v3.086h-3.087v6.173h3.087v3.085h-7.716v-12.344z" class="cls-3" data-name="Path 359" transform="translate(495.743)"/>
        <path id="Rectangle_246" d="M0 0h7.716v12.346H0z" class="cls-3" data-name="Rectangle 246" transform="translate(765.033 240.741)"/>
        <path id="Path_360" d="M277.006 220.679v3.086h-3.087v6.173h3.087v3.087h-7.716v-12.346z" class="cls-3" data-name="Path 360" transform="translate(495.743)"/>
        <path id="Rectangle_247" d="M0 0h7.716v12.346H0z" class="cls-3" data-name="Rectangle 247" transform="translate(765.033 280.864)"/>
        <path id="Path_361" d="M277.006 260.8v3.087h-3.087v6.173h3.087v3.086h-7.716V260.8z" class="cls-3" data-name="Path 361" transform="translate(495.743)"/>
        <path id="Rectangle_248" d="M0 0h7.716v12.346H0z" class="cls-3" data-name="Rectangle 248" transform="translate(765.033 320.988)"/>
        <path id="Rectangle_249" d="M0 0h7.716v12.346H0z" class="cls-3" data-name="Rectangle 249" transform="translate(765.033 373.457)"/>
        <path id="Path_362" d="M277.006 300.926v3.086h-3.087v6.173h3.087v3.087h-7.716v-12.346z" class="cls-3" data-name="Path 362" transform="translate(495.743)"/>
        <path id="Path_363" d="M277.006 395.062v3.086h-3.087v6.173h3.087v3.086h-7.716v-12.345z" class="cls-3" data-name="Path 363" transform="translate(495.743)"/>
        <path id="Rectangle_250" d="M0 0h7.716v12.346H0z" class="cls-3" data-name="Rectangle 250" transform="translate(727.996 63.272)"/>
        <path id="Rectangle_251" d="M0 0h7.716v12.346H0z" class="cls-3" data-name="Rectangle 251" transform="translate(727.996 160.494)"/>
        <path id="Rectangle_252" d="M0 0h10.802v1.543H0z" class="cls-3" data-name="Rectangle 252" transform="translate(724.909 359.568)"/>
        <path id="Path_364" d="M314.043 100.309v3.086h-3.087v6.173h3.087v3.086h-7.716v-12.345z" class="cls-3" data-name="Path 364" transform="translate(421.669)"/>
        <path id="Path_365" d="M314.043 120.37v3.087h-3.087v6.173h3.087v3.086h-7.716V120.37z" class="cls-3" data-name="Path 365" transform="translate(421.669)"/>
        <path id="Path_366" d="M314.043 140.432v3.087h-3.087v6.172h3.087v3.087h-7.716v-12.346z" class="cls-3" data-name="Path 366" transform="translate(421.669)"/>
        <path id="Rectangle_253" d="M0 0h7.716v12.346H0z" class="cls-3" data-name="Rectangle 253" transform="translate(727.996 200.617)"/>
        <path id="Path_367" d="M314.043 180.556v3.086h-3.087v6.173h3.087v3.085h-7.716v-12.344z" class="cls-3" data-name="Path 367" transform="translate(421.669)"/>
        <path id="Rectangle_254" d="M0 0h7.716v12.346H0z" class="cls-3" data-name="Rectangle 254" transform="translate(727.996 240.741)"/>
        <path id="Path_368" d="M314.043 220.679v3.086h-3.087v6.173h3.087v3.087h-7.716v-12.346z" class="cls-3" data-name="Path 368" transform="translate(421.669)"/>
        <path id="Rectangle_255" d="M0 0h7.716v12.346H0z" class="cls-3" data-name="Rectangle 255" transform="translate(727.996 280.864)"/>
        <path id="Path_369" d="M314.043 260.8v3.087h-3.087v6.173h3.087v3.086h-7.716V260.8z" class="cls-3" data-name="Path 369" transform="translate(421.669)"/>
        <path id="Rectangle_256" d="M0 0h7.716v12.346H0z" class="cls-3" data-name="Rectangle 256" transform="translate(727.996 320.988)"/>
        <path id="Rectangle_257" d="M0 0h7.716v12.346H0z" class="cls-3" data-name="Rectangle 257" transform="translate(727.996 373.457)"/>
        <path id="Path_370" d="M314.043 300.926v3.086h-3.087v6.173h3.087v3.087h-7.716v-12.346z" class="cls-3" data-name="Path 370" transform="translate(421.669)"/>
        <path id="Path_371" d="M314.043 395.062v3.086h-3.087v6.173h3.087v3.086h-7.716v-12.345z" class="cls-3" data-name="Path 371" transform="translate(421.669)"/>
        <path id="Path_372" d="M206.019 373.457v3.086h-3.087v6.173h3.087v3.084H198.3v-12.343z" class="cls-3" data-name="Path 372" transform="translate(637.718)"/>
        <path id="Path_373" d="M206.019 393.519v3.086h-3.087v6.173h3.087v3.086H198.3v-12.345z" class="cls-3" data-name="Path 373" transform="translate(637.718)"/>
        <path id="Path_374" d="M165.9 160.494v3.086h-3.086v6.173h3.086v3.087h-7.716v-12.346z" class="cls-3" data-name="Path 374" transform="translate(717.965)"/>
        <path id="Path_375" d="M165.9 239.2v3.086h-3.086v6.173h3.086v3.086h-7.716V239.2z" class="cls-3" data-name="Path 375" transform="translate(717.965)"/>
        <path id="Path_376" d="M165.9 259.259v3.087h-3.086v6.173h3.086v3.081h-7.716v-12.341z" class="cls-3" data-name="Path 376" transform="translate(717.965)"/>
        <path id="Path_377" d="M165.9 299.383v3.086h-3.086v6.173h3.086v3.086h-7.716v-12.345z" class="cls-3" data-name="Path 377" transform="translate(717.965)"/>
        <path id="Path_378" d="M165.9 356.481v3.087h-3.086v6.173h3.086v3.086h-7.716v-12.346z" class="cls-3" data-name="Path 378" transform="translate(717.965)"/>
        <path id="Path_379" d="M165.9 373.457v3.086h-3.086v6.173h3.086v3.084h-7.716v-12.343z" class="cls-3" data-name="Path 379" transform="translate(717.965)"/>
        <path id="Rectangle_258" d="M0 0h7.716v12.346H0z" class="cls-3" data-name="Rectangle 258" transform="translate(795.897 66.358)"/>
        <path id="Rectangle_259" d="M0 0h7.716v12.346H0z" class="cls-3" data-name="Rectangle 259" transform="translate(795.897 86.42)"/>
        <path id="Rectangle_260" d="M0 0h10.802v1.543H0z" class="cls-3" data-name="Rectangle 260" transform="translate(795.897 108.025)"/>
        <path id="Rectangle_261" d="M0 0h10.802v1.543H0z" class="cls-3" data-name="Rectangle 261" transform="translate(795.897 206.79)"/>
        <path id="Rectangle_262" d="M0 0h10.802v1.543H0z" class="cls-3" data-name="Rectangle 262" transform="translate(795.897 223.765)"/>
        <path id="Path_380" d="M246.142 121.914V125h-3.086v6.173h3.086v3.086h-7.716v-12.345z" class="cls-3" data-name="Path 380" transform="translate(557.471)"/>
        <path id="Path_381" d="M246.142 160.494v3.086h-3.086v6.173h3.086v3.087h-7.716v-12.346z" class="cls-3" data-name="Path 381" transform="translate(557.471)"/>
        <path id="Path_382" d="M246.142 239.2v3.086h-3.086v6.173h3.086v3.086h-7.716V239.2z" class="cls-3" data-name="Path 382" transform="translate(557.471)"/>
        <path id="Rectangle_263" d="M0 0h7.716v12.346H0z" class="cls-3" data-name="Rectangle 263" transform="translate(707.934 200.617)"/>
        <path id="Rectangle_264" d="M0 0h7.716v12.346H0z" class="cls-3" data-name="Rectangle 264" transform="translate(707.934 220.679)"/>
        <path id="Rectangle_265" d="M0 0h10.802v1.543H0z" class="cls-3" data-name="Rectangle 265" transform="translate(707.934 242.284)"/>
        <path id="Rectangle_266" d="M0 0h10.802v1.543H0z" class="cls-3" data-name="Rectangle 266" transform="translate(707.934 341.049)"/>
        <path id="Rectangle_267" d="M0 0h10.802v1.543H0z" class="cls-3" data-name="Rectangle 267" transform="translate(707.934 358.025)"/>
        <path id="Path_383" d="M334.105 256.173v3.086h-3.086v6.173h3.086v3.087h-7.716v-12.346z" class="cls-3" data-name="Path 383" transform="translate(381.545)"/>
        <path id="Path_384" d="M334.105 294.753v3.087h-3.086v6.172h3.086v3.088h-7.716v-12.347z" class="cls-3" data-name="Path 384" transform="translate(381.545)"/>
        <path id="Path_385" d="M334.105 373.457v3.086h-3.086v6.173h3.086v3.084h-7.716v-12.343z" class="cls-3" data-name="Path 385" transform="translate(381.545)"/>
        <path id="Rectangle_268" d="M0 0h7.716v12.346H0z" class="cls-3" data-name="Rectangle 268" transform="translate(683.243 66.358)"/>
        <path id="Rectangle_269" d="M0 0h7.716v12.346H0z" class="cls-3" data-name="Rectangle 269" transform="translate(657.008 63.272)"/>
        <path id="Rectangle_270" d="M0 0h7.716v12.346H0z" class="cls-3" data-name="Rectangle 270" transform="translate(643.119 63.272)"/>
        <path id="Rectangle_271" d="M0 0h7.716v12.346H0z" class="cls-3" data-name="Rectangle 271" transform="translate(643.119 100.309)"/>
        <path id="Rectangle_272" d="M0 0h7.716v12.346H0z" class="cls-3" data-name="Rectangle 272" transform="translate(627.687 81.79)"/>
        <path id="Rectangle_273" d="M0 0h7.716v12.346H0z" class="cls-3" data-name="Rectangle 273" transform="translate(627.687 101.852)"/>
        <path id="Rectangle_274" d="M0 0h7.716v12.346H0z" class="cls-3" data-name="Rectangle 274" transform="translate(643.119 140.432)"/>
        <path id="Rectangle_275" d="M0 0h7.716v12.346H0z" class="cls-3" data-name="Rectangle 275" transform="translate(627.687 160.494)"/>
        <path id="Rectangle_276" d="M0 0h7.716v12.346H0z" class="cls-3" data-name="Rectangle 276" transform="translate(643.119 236.111)"/>
        <path id="Rectangle_277" d="M0 0h7.716v12.346H0z" class="cls-3" data-name="Rectangle 277" transform="translate(657.008 160.494)"/>
        <path id="Rectangle_278" d="M0 0h7.716v12.346H0z" class="cls-3" data-name="Rectangle 278" transform="translate(683.243 86.42)"/>
        <path id="Rectangle_279" d="M0 0h7.716v12.346H0z" class="cls-3" data-name="Rectangle 279" transform="translate(683.243 279.321)"/>
        <path id="Rectangle_280" d="M0 0h7.716v12.346H0z" class="cls-3" data-name="Rectangle 280" transform="translate(683.243 319.444)"/>
        <path id="Rectangle_281" d="M0 0h7.716v12.346H0z" class="cls-3" data-name="Rectangle 281" transform="translate(683.243 339.506)"/>
        <path id="Rectangle_282" d="M0 0h10.802v1.543H0z" class="cls-3" data-name="Rectangle 282" transform="translate(683.243 108.025)"/>
        <path id="Rectangle_283" d="M0 0h10.802v1.543H0z" class="cls-3" data-name="Rectangle 283" transform="translate(641.576 126.543)"/>
        <path id="Rectangle_284" d="M0 0h10.802v1.543H0z" class="cls-3" data-name="Rectangle 284" transform="translate(683.243 206.79)"/>
        <path id="Rectangle_285" d="M0 0h10.802v1.543H0z" class="cls-3" data-name="Rectangle 285" transform="translate(683.243 223.765)"/>
        <path id="Rectangle_286" d="M0 0h10.802v1.543H0z" class="cls-3" data-name="Rectangle 286" transform="translate(641.576 322.531)"/>
        <path id="Rectangle_287" d="M0 0h10.802v1.543H0z" class="cls-3" data-name="Rectangle 287" transform="translate(653.922 359.568)"/>
        <path id="Path_386" d="M358.8 121.914V125h-3.087v6.173h3.087v3.086h-7.72v-12.345z" class="cls-3" data-name="Path 386" transform="translate(332.163)"/>
        <path id="Path_387" d="M385.031 100.309v3.086h-3.086v6.173h3.086v3.086h-7.716v-12.345z" class="cls-3" data-name="Path 387" transform="translate(279.693)"/>
        <path id="Path_388" d="M414.352 120.37v3.087h-3.086v6.173h3.086v3.086h-7.716V120.37z" class="cls-3" data-name="Path 388" transform="translate(221.051)"/>
        <path id="Path_389" d="M414.352 180.556v3.086h-3.086v6.173h3.086v3.085h-7.716v-12.344z" class="cls-3" data-name="Path 389" transform="translate(221.051)"/>
        <path id="Path_390" d="M414.352 200.617v3.083h-3.086v6.173h3.086v3.086h-7.716v-12.342z" class="cls-3" data-name="Path 390" transform="translate(221.051)"/>
        <path id="Path_391" d="M414.352 138.889v3.086h-3.086v6.173h3.086v3.087h-7.716v-12.346z" class="cls-3" data-name="Path 391" transform="translate(221.051)"/>
        <path id="Path_392" d="M398.92 81.79v3.087h-3.086v6.172h3.086v3.087h-7.72V81.79z" class="cls-3" data-name="Path 392" transform="translate(251.915)"/>
        <path id="Rectangle_288" d="M0 0h7.716v12.346H0z" class="cls-3" data-name="Rectangle 288" transform="translate(643.119 180.556)"/>
        <path id="Rectangle_289" d="M0 0h7.716v12.346H0z" class="cls-3" data-name="Rectangle 289" transform="translate(643.119 217.593)"/>
        <path id="Path_393" d="M398.92 199.074v3.086h-3.086v6.173h3.086v3.087h-7.72v-12.346z" class="cls-3" data-name="Path 393" transform="translate(251.915)"/>
        <path id="Path_394" d="M385.031 120.37v3.087h-3.086v6.173h3.086v3.086h-7.716V120.37z" class="cls-3" data-name="Path 394" transform="translate(279.693)"/>
        <path id="Path_395" d="M385.031 140.432v3.087h-3.086v6.172h3.086v3.087h-7.716v-12.346z" class="cls-3" data-name="Path 395" transform="translate(279.693)"/>
        <path id="Rectangle_290" d="M0 0h7.716v12.346H0z" class="cls-3" data-name="Rectangle 290" transform="translate(657.008 200.617)"/>
        <path id="Path_396" d="M385.031 180.556v3.086h-3.086v6.173h3.086v3.085h-7.716v-12.344z" class="cls-3" data-name="Path 396" transform="translate(279.693)"/>
        <path id="Rectangle_291" d="M0 0h7.716v12.346H0z" class="cls-3" data-name="Rectangle 291" transform="translate(657.008 240.741)"/>
        <path id="Path_397" d="M385.031 220.679v3.086h-3.086v6.173h3.086v3.087h-7.716v-12.346z" class="cls-3" data-name="Path 397" transform="translate(279.693)"/>
        <path id="Rectangle_292" d="M0 0h7.716v12.346H0z" class="cls-3" data-name="Rectangle 292" transform="translate(657.008 280.864)"/>
        <path id="Rectangle_293" d="M0 0h7.716v12.346H0z" class="cls-3" data-name="Rectangle 293" transform="translate(643.119 277.778)"/>
        <path id="Path_398" d="M385.031 260.8v3.087h-3.086v6.173h3.086v3.086h-7.716V260.8z" class="cls-3" data-name="Path 398" transform="translate(279.693)"/>
        <path id="Path_399" d="M414.352 260.8v3.087h-3.086v6.173h3.086v3.086h-7.716V260.8z" class="cls-3" data-name="Path 399" transform="translate(221.051)"/>
        <path id="Rectangle_294" d="M0 0h7.716v12.346H0z" class="cls-3" data-name="Rectangle 294" transform="translate(548.984 81.79)"/>
        <path id="Rectangle_295" d="M0 0h7.716v12.346H0z" class="cls-3" data-name="Rectangle 295" transform="translate(548.984 101.852)"/>
        <path id="Rectangle_296" d="M0 0h7.716v12.346H0z" class="cls-3" data-name="Rectangle 296" transform="translate(548.984 160.494)"/>
        <path id="Path_400" d="M493.056 120.37v3.087h-3.086v6.173h3.086v3.086h-7.716V120.37z" class="cls-3" data-name="Path 400" transform="translate(63.643)"/>
        <path id="Path_401" d="M493.056 180.556v3.086h-3.086v6.173h3.086v3.085h-7.716v-12.344z" class="cls-3" data-name="Path 401" transform="translate(63.643)"/>
        <path id="Path_402" d="M493.056 200.617v3.083h-3.086v6.173h3.086v3.086h-7.716v-12.342z" class="cls-3" data-name="Path 402" transform="translate(63.643)"/>
        <path id="Path_403" d="M493.056 138.889v3.086h-3.086v6.173h3.086v3.087h-7.716v-12.346z" class="cls-3" data-name="Path 403" transform="translate(63.643)"/>
        <path id="Path_404" d="M493.056 260.8v3.087h-3.086v6.173h3.086v3.086h-7.716V260.8z" class="cls-3" data-name="Path 404" transform="translate(63.643)"/>
        <path id="Rectangle_297" d="M0 0h7.716v12.346H0z" class="cls-3" data-name="Rectangle 297" transform="translate(657.008 320.988)"/>
        <path id="Rectangle_298" d="M0 0h7.716v12.346H0z" class="cls-3" data-name="Rectangle 298" transform="translate(643.119 297.839)"/>
        <path id="Rectangle_299" d="M0 0h7.716v12.346H0z" class="cls-3" data-name="Rectangle 299" transform="translate(657.008 373.457)"/>
        <path id="Rectangle_300" d="M0 0h7.716v12.346H0z" class="cls-3" data-name="Rectangle 300" transform="translate(643.119 336.42)"/>
        <path id="Path_405" d="M385.031 300.926v3.086h-3.086v6.173h3.086v3.087h-7.716v-12.346z" class="cls-3" data-name="Path 405" transform="translate(279.693)"/>
        <path id="Path_406" d="M385.031 395.062v3.086h-3.086v6.173h3.086v3.086h-7.716v-12.345z" class="cls-3" data-name="Path 406" transform="translate(279.693)"/>
        <path id="Rectangle_301" d="M0 0h7.716v12.346H0z" class="cls-3" data-name="Rectangle 301" transform="translate(572.132 63.272)"/>
        <path id="Rectangle_302" d="M0 0h7.716v12.346H0z" class="cls-3" data-name="Rectangle 302" transform="translate(572.132 160.494)"/>
        <path id="Rectangle_303" d="M0 0h10.802v1.543H0z" class="cls-3" data-name="Rectangle 303" transform="translate(569.045 359.568)"/>
        <path id="Path_407" d="M469.907 100.309v3.086h-3.087v6.173h3.087v3.086h-7.716v-12.345z" class="cls-3" data-name="Path 407" transform="translate(109.941)"/>
        <path id="Path_408" d="M469.907 120.37v3.087h-3.087v6.173h3.087v3.086h-7.716V120.37z" class="cls-3" data-name="Path 408" transform="translate(109.941)"/>
        <path id="Path_409" d="M469.907 140.432v3.087h-3.087v6.172h3.087v3.087h-7.716v-12.346z" class="cls-3" data-name="Path 409" transform="translate(109.941)"/>
        <path id="Rectangle_304" d="M0 0h7.716v12.346H0z" class="cls-3" data-name="Rectangle 304" transform="translate(572.132 200.617)"/>
        <path id="Path_410" d="M469.907 180.556v3.086h-3.087v6.173h3.087v3.085h-7.716v-12.344z" class="cls-3" data-name="Path 410" transform="translate(109.941)"/>
        <path id="Rectangle_305" d="M0 0h7.716v12.346H0z" class="cls-3" data-name="Rectangle 305" transform="translate(572.132 240.741)"/>
        <path id="Path_411" d="M469.907 220.679v3.086h-3.087v6.173h3.087v3.087h-7.716v-12.346z" class="cls-3" data-name="Path 411" transform="translate(109.941)"/>
        <path id="Rectangle_306" d="M0 0h7.716v12.346H0z" class="cls-3" data-name="Rectangle 306" transform="translate(572.132 280.864)"/>
        <path id="Path_412" d="M469.907 260.8v3.087h-3.087v6.173h3.087v3.086h-7.716V260.8z" class="cls-3" data-name="Path 412" transform="translate(109.941)"/>
        <path id="Rectangle_307" d="M0 0h7.716v12.346H0z" class="cls-3" data-name="Rectangle 307" transform="translate(572.132 320.988)"/>
        <path id="Rectangle_308" d="M0 0h7.716v12.346H0z" class="cls-3" data-name="Rectangle 308" transform="translate(572.132 373.457)"/>
        <path id="Path_413" d="M469.907 300.926v3.086h-3.087v6.173h3.087v3.087h-7.716v-12.346z" class="cls-3" data-name="Path 413" transform="translate(109.941)"/>
        <path id="Path_414" d="M469.907 395.062v3.086h-3.087v6.173h3.087v3.086h-7.716v-12.345z" class="cls-3" data-name="Path 414" transform="translate(109.941)"/>
        <path id="Rectangle_309" d="M0 0h7.716v12.346H0z" class="cls-3" data-name="Rectangle 309" transform="translate(535.095 63.272)"/>
        <path id="Rectangle_310" d="M0 0h7.716v12.346H0z" class="cls-3" data-name="Rectangle 310" transform="translate(535.095 160.494)"/>
        <path id="Rectangle_311" d="M0 0h10.802v1.543H0z" class="cls-3" data-name="Rectangle 311" transform="translate(532.008 359.568)"/>
        <path id="Path_415" d="M506.944 100.309v3.086h-3.087v6.173h3.087v3.086h-7.716v-12.345z" class="cls-3" data-name="Path 415" transform="translate(35.867)"/>
        <path id="Path_416" d="M506.944 120.37v3.087h-3.087v6.173h3.087v3.086h-7.716V120.37z" class="cls-3" data-name="Path 416" transform="translate(35.867)"/>
        <path id="Path_417" d="M506.944 140.432v3.087h-3.087v6.172h3.087v3.087h-7.716v-12.346z" class="cls-3" data-name="Path 417" transform="translate(35.867)"/>
        <path id="Rectangle_312" d="M0 0h7.716v12.346H0z" class="cls-3" data-name="Rectangle 312" transform="translate(535.095 200.617)"/>
        <path id="Path_418" d="M506.944 180.556v3.086h-3.087v6.173h3.087v3.085h-7.716v-12.344z" class="cls-3" data-name="Path 418" transform="translate(35.867)"/>
        <path id="Rectangle_313" d="M0 0h7.716v12.346H0z" class="cls-3" data-name="Rectangle 313" transform="translate(535.095 240.741)"/>
        <path id="Path_419" d="M506.944 220.679v3.086h-3.087v6.173h3.087v3.087h-7.716v-12.346z" class="cls-3" data-name="Path 419" transform="translate(35.867)"/>
        <path id="Rectangle_314" d="M0 0h7.716v12.346H0z" class="cls-3" data-name="Rectangle 314" transform="translate(535.095 280.864)"/>
        <path id="Path_420" d="M506.944 260.8v3.087h-3.087v6.173h3.087v3.086h-7.716V260.8z" class="cls-3" data-name="Path 420" transform="translate(35.867)"/>
        <path id="Rectangle_315" d="M0 0h7.716v12.346H0z" class="cls-3" data-name="Rectangle 315" transform="translate(535.095 320.988)"/>
        <path id="Rectangle_316" d="M0 0h7.716v12.346H0z" class="cls-3" data-name="Rectangle 316" transform="translate(535.095 373.457)"/>
        <path id="Path_421" d="M506.944 300.926v3.086h-3.087v6.173h3.087v3.087h-7.716v-12.346z" class="cls-3" data-name="Path 421" transform="translate(35.867)"/>
        <path id="Path_422" d="M506.944 395.062v3.086h-3.087v6.173h3.087v3.086h-7.716v-12.345z" class="cls-3" data-name="Path 422" transform="translate(35.867)"/>
        <path id="Path_423" d="M398.92 373.457v3.086h-3.086v6.173h3.086v3.084h-7.72v-12.343z" class="cls-3" data-name="Path 423" transform="translate(251.915)"/>
        <path id="Path_424" d="M398.92 393.519v3.086h-3.086v6.173h3.086v3.086h-7.72v-12.345z" class="cls-3" data-name="Path 424" transform="translate(251.915)"/>
        <path id="Path_425" d="M358.8 160.494v3.086h-3.087v6.173h3.087v3.087h-7.72v-12.346z" class="cls-3" data-name="Path 425" transform="translate(332.163)"/>
        <path id="Path_426" d="M358.8 239.2v3.086h-3.087v6.173h3.087v3.086h-7.72V239.2z" class="cls-3" data-name="Path 426" transform="translate(332.163)"/>
        <path id="Path_427" d="M358.8 259.259v3.087h-3.087v6.173h3.087v3.081h-7.72v-12.341z" class="cls-3" data-name="Path 427" transform="translate(332.163)"/>
        <path id="Path_428" d="M358.8 299.383v3.086h-3.087v6.173h3.087v3.086h-7.72v-12.345z" class="cls-3" data-name="Path 428" transform="translate(332.163)"/>
        <path id="Path_429" d="M358.8 356.481v3.087h-3.087v6.173h3.087v3.086h-7.72v-12.346z" class="cls-3" data-name="Path 429" transform="translate(332.163)"/>
        <path id="Path_430" d="M358.8 373.457v3.086h-3.087v6.173h3.087v3.084h-7.72v-12.343z" class="cls-3" data-name="Path 430" transform="translate(332.163)"/>
        <path id="Rectangle_317" d="M0 0h7.716v12.346H0z" class="cls-3" data-name="Rectangle 317" transform="translate(602.996 66.358)"/>
        <path id="Rectangle_318" d="M0 0h7.716v12.346H0z" class="cls-3" data-name="Rectangle 318" transform="translate(602.996 86.42)"/>
        <path id="Rectangle_319" d="M0 0h10.802v1.543H0z" class="cls-3" data-name="Rectangle 319" transform="translate(602.996 108.025)"/>
        <path id="Rectangle_320" d="M0 0h10.802v1.543H0z" class="cls-3" data-name="Rectangle 320" transform="translate(602.996 206.79)"/>
        <path id="Rectangle_321" d="M0 0h10.802v1.543H0z" class="cls-3" data-name="Rectangle 321" transform="translate(602.996 223.765)"/>
        <path id="Path_431" d="M439.043 121.914V125h-3.087v6.173h3.087v3.086h-7.716v-12.345z" class="cls-3" data-name="Path 431" transform="translate(171.669)"/>
        <path id="Path_432" d="M439.043 160.494v3.086h-3.087v6.173h3.087v3.087h-7.716v-12.346z" class="cls-3" data-name="Path 432" transform="translate(171.669)"/>
        <path id="Path_433" d="M439.043 239.2v3.086h-3.087v6.173h3.087v3.086h-7.716V239.2z" class="cls-3" data-name="Path 433" transform="translate(171.669)"/>
        <path id="Rectangle_322" d="M0 0h7.716v12.346H0z" class="cls-3" data-name="Rectangle 322" transform="translate(515.033 200.617)"/>
        <path id="Rectangle_323" d="M0 0h7.716v12.346H0z" class="cls-3" data-name="Rectangle 323" transform="translate(515.033 220.679)"/>
        <path id="Rectangle_324" d="M0 0h10.802v1.543H0z" class="cls-3" data-name="Rectangle 324" transform="translate(515.033 242.284)"/>
        <path id="Rectangle_325" d="M0 0h10.802v1.543H0z" class="cls-3" data-name="Rectangle 325" transform="translate(515.033 341.049)"/>
        <path id="Rectangle_326" d="M0 0h10.802v1.543H0z" class="cls-3" data-name="Rectangle 326" transform="translate(515.033 358.025)"/>
        <path id="Path_434" d="M527.006 256.173v3.086h-3.087v6.173h3.087v3.087h-7.716v-12.346z" class="cls-3" data-name="Path 434" transform="translate(-4.257)"/>
        <path id="Path_435" d="M527.006 294.753v3.087h-3.087v6.172h3.087v3.088h-7.716v-12.347z" class="cls-3" data-name="Path 435" transform="translate(-4.257)"/>
        <path id="Path_436" d="M527.006 373.457v3.086h-3.087v6.173h3.087v3.084h-7.716v-12.343z" class="cls-3" data-name="Path 436" transform="translate(-4.257)"/>
        <path id="Rectangle_327" d="M0 0h7.716v12.346H0z" class="cls-3" data-name="Rectangle 327" transform="translate(490.341 66.358)"/>
        <path id="Rectangle_328" d="M0 0h7.716v12.346H0z" class="cls-3" data-name="Rectangle 328" transform="translate(464.107 63.272)"/>
        <path id="Rectangle_329" d="M0 0h7.716v12.346H0z" class="cls-3" data-name="Rectangle 329" transform="translate(450.218 63.272)"/>
        <path id="Rectangle_330" d="M0 0h7.716v12.346H0z" class="cls-3" data-name="Rectangle 330" transform="translate(450.218 100.309)"/>
        <path id="Rectangle_331" d="M0 0h7.716v12.346H0z" class="cls-3" data-name="Rectangle 331" transform="translate(434.786 81.79)"/>
        <path id="Rectangle_332" d="M0 0h7.716v12.346H0z" class="cls-3" data-name="Rectangle 332" transform="translate(434.786 101.852)"/>
        <path id="Rectangle_333" d="M0 0h7.716v12.346H0z" class="cls-3" data-name="Rectangle 333" transform="translate(450.218 140.432)"/>
        <path id="Rectangle_334" d="M0 0h7.716v12.346H0z" class="cls-3" data-name="Rectangle 334" transform="translate(434.786 160.494)"/>
        <path id="Rectangle_335" d="M0 0h7.716v12.346H0z" class="cls-3" data-name="Rectangle 335" transform="translate(450.218 236.111)"/>
        <path id="Rectangle_336" d="M0 0h7.716v12.346H0z" class="cls-3" data-name="Rectangle 336" transform="translate(464.107 160.494)"/>
        <path id="Rectangle_337" d="M0 0h7.716v12.346H0z" class="cls-3" data-name="Rectangle 337" transform="translate(490.341 86.42)"/>
        <path id="Rectangle_338" d="M0 0h7.716v12.346H0z" class="cls-3" data-name="Rectangle 338" transform="translate(490.341 279.321)"/>
        <path id="Rectangle_339" d="M0 0h7.716v12.346H0z" class="cls-3" data-name="Rectangle 339" transform="translate(490.341 319.444)"/>
        <path id="Rectangle_340" d="M0 0h7.716v12.346H0z" class="cls-3" data-name="Rectangle 340" transform="translate(490.341 339.506)"/>
        <path id="Rectangle_341" d="M0 0h10.802v1.543H0z" class="cls-3" data-name="Rectangle 341" transform="translate(490.342 108.025)"/>
        <path id="Rectangle_342" d="M0 0h10.802v1.543H0z" class="cls-3" data-name="Rectangle 342" transform="translate(448.675 126.543)"/>
        <path id="Rectangle_343" d="M0 0h10.802v1.543H0z" class="cls-3" data-name="Rectangle 343" transform="translate(490.342 206.79)"/>
        <path id="Rectangle_344" d="M0 0h10.802v1.543H0z" class="cls-3" data-name="Rectangle 344" transform="translate(490.342 223.765)"/>
        <path id="Rectangle_345" d="M0 0h10.802v1.543H0z" class="cls-3" data-name="Rectangle 345" transform="translate(448.675 322.531)"/>
        <path id="Rectangle_346" d="M0 0h10.802v1.543H0z" class="cls-3" data-name="Rectangle 346" transform="translate(461.021 359.568)"/>
        <path id="Path_437" d="M551.7 121.914V125h-3.087v6.173h3.087v3.086h-7.717v-12.345z" class="cls-3" data-name="Path 437" transform="translate(-53.64)"/>
        <path id="Path_438" d="M577.932 100.309v3.086h-3.086v6.173h3.086v3.086h-7.716v-12.345z" class="cls-3" data-name="Path 438" transform="translate(-106.109)"/>
        <path id="Path_439" d="M607.253 120.37v3.087h-3.086v6.173h3.086v3.086h-7.716V120.37z" class="cls-3" data-name="Path 439" transform="translate(-164.751)"/>
        <path id="Path_440" d="M607.253 180.556v3.086h-3.086v6.173h3.086v3.085h-7.716v-12.344z" class="cls-3" data-name="Path 440" transform="translate(-164.751)"/>
        <path id="Path_441" d="M607.253 200.617v3.083h-3.086v6.173h3.086v3.086h-7.716v-12.342z" class="cls-3" data-name="Path 441" transform="translate(-164.751)"/>
        <path id="Path_442" d="M607.253 138.889v3.086h-3.086v6.173h3.086v3.087h-7.716v-12.346z" class="cls-3" data-name="Path 442" transform="translate(-164.751)"/>
        <path id="Path_443" d="M591.821 81.79v3.087h-3.086v6.172h3.086v3.087h-7.716V81.79z" class="cls-3" data-name="Path 443" transform="translate(-133.887)"/>
        <path id="Rectangle_347" d="M0 0h7.716v12.346H0z" class="cls-3" data-name="Rectangle 347" transform="translate(450.218 180.556)"/>
        <path id="Rectangle_348" d="M0 0h7.716v12.346H0z" class="cls-3" data-name="Rectangle 348" transform="translate(450.218 217.593)"/>
        <path id="Path_444" d="M591.821 199.074v3.086h-3.086v6.173h3.086v3.087h-7.716v-12.346z" class="cls-3" data-name="Path 444" transform="translate(-133.887)"/>
        <path id="Path_445" d="M577.932 120.37v3.087h-3.086v6.173h3.086v3.086h-7.716V120.37z" class="cls-3" data-name="Path 445" transform="translate(-106.109)"/>
        <path id="Path_446" d="M577.932 140.432v3.087h-3.086v6.172h3.086v3.087h-7.716v-12.346z" class="cls-3" data-name="Path 446" transform="translate(-106.109)"/>
        <path id="Rectangle_349" d="M0 0h7.716v12.346H0z" class="cls-3" data-name="Rectangle 349" transform="translate(464.107 200.617)"/>
        <path id="Path_447" d="M577.932 180.556v3.086h-3.086v6.173h3.086v3.085h-7.716v-12.344z" class="cls-3" data-name="Path 447" transform="translate(-106.109)"/>
        <path id="Rectangle_350" d="M0 0h7.716v12.346H0z" class="cls-3" data-name="Rectangle 350" transform="translate(464.107 240.741)"/>
        <path id="Path_448" d="M577.932 220.679v3.086h-3.086v6.173h3.086v3.087h-7.716v-12.346z" class="cls-3" data-name="Path 448" transform="translate(-106.109)"/>
        <path id="Rectangle_351" d="M0 0h7.716v12.346H0z" class="cls-3" data-name="Rectangle 351" transform="translate(464.107 280.864)"/>
        <path id="Rectangle_352" d="M0 0h7.716v12.346H0z" class="cls-3" data-name="Rectangle 352" transform="translate(450.218 277.778)"/>
        <path id="Path_449" d="M577.932 260.8v3.087h-3.086v6.173h3.086v3.086h-7.716V260.8z" class="cls-3" data-name="Path 449" transform="translate(-106.109)"/>
        <path id="Path_450" d="M607.253 260.8v3.087h-3.086v6.173h3.086v3.086h-7.716V260.8z" class="cls-3" data-name="Path 450" transform="translate(-164.751)"/>
        <path id="Rectangle_353" d="M0 0h7.716v12.346H0z" class="cls-3" data-name="Rectangle 353" transform="translate(356.082 81.79)"/>
        <path id="Rectangle_354" d="M0 0h7.716v12.346H0z" class="cls-3" data-name="Rectangle 354" transform="translate(356.082 101.852)"/>
        <path id="Rectangle_355" d="M0 0h7.716v12.346H0z" class="cls-3" data-name="Rectangle 355" transform="translate(356.082 160.494)"/>
        <path id="Path_451" d="M685.957 120.37v3.087h-3.086v6.173h3.086v3.086h-7.716V120.37z" class="cls-3" data-name="Path 451" transform="translate(-322.159)"/>
        <path id="Path_452" d="M685.957 180.556v3.086h-3.086v6.173h3.086v3.085h-7.716v-12.344z" class="cls-3" data-name="Path 452" transform="translate(-322.159)"/>
        <path id="Path_453" d="M685.957 200.617v3.083h-3.086v6.173h3.086v3.086h-7.716v-12.342z" class="cls-3" data-name="Path 453" transform="translate(-322.159)"/>
        <path id="Path_454" d="M685.957 138.889v3.086h-3.086v6.173h3.086v3.087h-7.716v-12.346z" class="cls-3" data-name="Path 454" transform="translate(-322.159)"/>
        <path id="Path_455" d="M685.957 260.8v3.087h-3.086v6.173h3.086v3.086h-7.716V260.8z" class="cls-3" data-name="Path 455" transform="translate(-322.159)"/>
        <path id="Rectangle_356" d="M0 0h7.716v12.346H0z" class="cls-3" data-name="Rectangle 356" transform="translate(464.107 320.988)"/>
        <path id="Rectangle_357" d="M0 0h7.716v12.346H0z" class="cls-3" data-name="Rectangle 357" transform="translate(450.218 297.839)"/>
        <path id="Rectangle_358" d="M0 0h7.716v12.346H0z" class="cls-3" data-name="Rectangle 358" transform="translate(464.107 373.457)"/>
        <path id="Rectangle_359" d="M0 0h7.716v12.346H0z" class="cls-3" data-name="Rectangle 359" transform="translate(450.218 336.42)"/>
        <path id="Path_456" d="M577.932 300.926v3.086h-3.086v6.173h3.086v3.087h-7.716v-12.346z" class="cls-3" data-name="Path 456" transform="translate(-106.109)"/>
        <path id="Path_457" d="M577.932 395.062v3.086h-3.086v6.173h3.086v3.086h-7.716v-12.345z" class="cls-3" data-name="Path 457" transform="translate(-106.109)"/>
        <path id="Rectangle_360" d="M0 0h7.716v12.346H0z" class="cls-3" data-name="Rectangle 360" transform="translate(379.23 63.272)"/>
        <path id="Rectangle_361" d="M0 0h7.716v12.346H0z" class="cls-3" data-name="Rectangle 361" transform="translate(379.23 160.494)"/>
        <path id="Rectangle_362" d="M0 0h10.802v1.543H0z" class="cls-3" data-name="Rectangle 362" transform="translate(376.144 359.568)"/>
        <path id="Path_458" d="M662.809 100.309v3.086h-3.086v6.173h3.086v3.086h-7.716v-12.345z" class="cls-3" data-name="Path 458" transform="translate(-275.863)"/>
        <path id="Path_459" d="M662.809 120.37v3.087h-3.086v6.173h3.086v3.086h-7.716V120.37z" class="cls-3" data-name="Path 459" transform="translate(-275.863)"/>
        <path id="Path_460" d="M662.809 140.432v3.087h-3.086v6.172h3.086v3.087h-7.716v-12.346z" class="cls-3" data-name="Path 460" transform="translate(-275.863)"/>
        <path id="Rectangle_363" d="M0 0h7.716v12.346H0z" class="cls-3" data-name="Rectangle 363" transform="translate(379.23 200.617)"/>
        <path id="Path_461" d="M662.809 180.556v3.086h-3.086v6.173h3.086v3.085h-7.716v-12.344z" class="cls-3" data-name="Path 461" transform="translate(-275.863)"/>
        <path id="Rectangle_364" d="M0 0h7.716v12.346H0z" class="cls-3" data-name="Rectangle 364" transform="translate(379.23 240.741)"/>
        <path id="Path_462" d="M662.809 220.679v3.086h-3.086v6.173h3.086v3.087h-7.716v-12.346z" class="cls-3" data-name="Path 462" transform="translate(-275.863)"/>
        <path id="Rectangle_365" d="M0 0h7.716v12.346H0z" class="cls-3" data-name="Rectangle 365" transform="translate(379.23 280.864)"/>
        <path id="Path_463" d="M662.809 260.8v3.087h-3.086v6.173h3.086v3.086h-7.716V260.8z" class="cls-3" data-name="Path 463" transform="translate(-275.863)"/>
        <path id="Rectangle_366" d="M0 0h7.716v12.346H0z" class="cls-3" data-name="Rectangle 366" transform="translate(379.23 320.988)"/>
        <path id="Rectangle_367" d="M0 0h7.716v12.346H0z" class="cls-3" data-name="Rectangle 367" transform="translate(379.23 373.457)"/>
        <path id="Path_464" d="M662.809 300.926v3.086h-3.086v6.173h3.086v3.087h-7.716v-12.346z" class="cls-3" data-name="Path 464" transform="translate(-275.863)"/>
        <path id="Path_465" d="M662.809 395.062v3.086h-3.086v6.173h3.086v3.086h-7.716v-12.345z" class="cls-3" data-name="Path 465" transform="translate(-275.863)"/>
        <path id="Rectangle_368" d="M0 0h7.716v12.346H0z" class="cls-3" data-name="Rectangle 368" transform="translate(342.193 63.272)"/>
        <path id="Rectangle_369" d="M0 0h7.716v12.346H0z" class="cls-3" data-name="Rectangle 369" transform="translate(342.193 160.494)"/>
        <path id="Rectangle_370" d="M0 0h10.802v1.543H0z" class="cls-3" data-name="Rectangle 370" transform="translate(339.107 359.568)"/>
        <path id="Path_466" d="M699.846 100.309v3.086h-3.086v6.173h3.086v3.086h-7.716v-12.345z" class="cls-3" data-name="Path 466" transform="translate(-349.937)"/>
        <path id="Path_467" d="M699.846 120.37v3.087h-3.086v6.173h3.086v3.086h-7.716V120.37z" class="cls-3" data-name="Path 467" transform="translate(-349.937)"/>
        <path id="Path_468" d="M699.846 140.432v3.087h-3.086v6.172h3.086v3.087h-7.716v-12.346z" class="cls-3" data-name="Path 468" transform="translate(-349.937)"/>
        <path id="Rectangle_371" d="M0 0h7.716v12.346H0z" class="cls-3" data-name="Rectangle 371" transform="translate(342.193 200.617)"/>
        <path id="Path_469" d="M699.846 180.556v3.086h-3.086v6.173h3.086v3.085h-7.716v-12.344z" class="cls-3" data-name="Path 469" transform="translate(-349.937)"/>
        <path id="Rectangle_372" d="M0 0h7.716v12.346H0z" class="cls-3" data-name="Rectangle 372" transform="translate(342.193 240.741)"/>
        <path id="Path_470" d="M699.846 220.679v3.086h-3.086v6.173h3.086v3.087h-7.716v-12.346z" class="cls-3" data-name="Path 470" transform="translate(-349.937)"/>
        <path id="Rectangle_373" d="M0 0h7.716v12.346H0z" class="cls-3" data-name="Rectangle 373" transform="translate(342.193 280.864)"/>
        <path id="Path_471" d="M699.846 260.8v3.087h-3.086v6.173h3.086v3.086h-7.716V260.8z" class="cls-3" data-name="Path 471" transform="translate(-349.937)"/>
        <path id="Rectangle_374" d="M0 0h7.716v12.346H0z" class="cls-3" data-name="Rectangle 374" transform="translate(342.193 320.988)"/>
        <path id="Rectangle_375" d="M0 0h7.716v12.346H0z" class="cls-3" data-name="Rectangle 375" transform="translate(342.193 373.457)"/>
        <path id="Path_472" d="M699.846 300.926v3.086h-3.086v6.173h3.086v3.087h-7.716v-12.346z" class="cls-3" data-name="Path 472" transform="translate(-349.937)"/>
        <path id="Path_473" d="M699.846 395.062v3.086h-3.086v6.173h3.086v3.086h-7.716v-12.345z" class="cls-3" data-name="Path 473" transform="translate(-349.937)"/>
        <path id="Path_474" d="M591.821 373.457v3.086h-3.086v6.173h3.086v3.084h-7.716v-12.343z" class="cls-3" data-name="Path 474" transform="translate(-133.887)"/>
        <path id="Path_475" d="M591.821 393.519v3.086h-3.086v6.173h3.086v3.086h-7.716v-12.345z" class="cls-3" data-name="Path 475" transform="translate(-133.887)"/>
        <path id="Path_476" d="M551.7 160.494v3.086h-3.087v6.173h3.087v3.087h-7.717v-12.346z" class="cls-3" data-name="Path 476" transform="translate(-53.64)"/>
        <path id="Path_477" d="M551.7 239.2v3.086h-3.087v6.173h3.087v3.086h-7.717V239.2z" class="cls-3" data-name="Path 477" transform="translate(-53.64)"/>
        <path id="Path_478" d="M551.7 259.259v3.087h-3.087v6.173h3.087v3.081h-7.717v-12.341z" class="cls-3" data-name="Path 478" transform="translate(-53.64)"/>
        <path id="Path_479" d="M551.7 299.383v3.086h-3.087v6.173h3.087v3.086h-7.717v-12.345z" class="cls-3" data-name="Path 479" transform="translate(-53.64)"/>
        <path id="Path_480" d="M551.7 356.481v3.087h-3.087v6.173h3.087v3.086h-7.717v-12.346z" class="cls-3" data-name="Path 480" transform="translate(-53.64)"/>
        <path id="Path_481" d="M551.7 373.457v3.086h-3.087v6.173h3.087v3.084h-7.717v-12.343z" class="cls-3" data-name="Path 481" transform="translate(-53.64)"/>
        <path id="Rectangle_376" d="M0 0h7.716v12.346H0z" class="cls-3" data-name="Rectangle 376" transform="translate(410.095 66.358)"/>
        <path id="Rectangle_377" d="M0 0h7.716v12.346H0z" class="cls-3" data-name="Rectangle 377" transform="translate(410.095 86.42)"/>
        <path id="Rectangle_378" d="M0 0h10.802v1.543H0z" class="cls-3" data-name="Rectangle 378" transform="translate(410.095 108.025)"/>
        <path id="Rectangle_379" d="M0 0h10.802v1.543H0z" class="cls-3" data-name="Rectangle 379" transform="translate(410.095 206.79)"/>
        <path id="Rectangle_380" d="M0 0h10.802v1.543H0z" class="cls-3" data-name="Rectangle 380" transform="translate(410.095 223.765)"/>
        <path id="Path_482" d="M631.944 121.914V125h-3.087v6.173h3.087v3.086h-7.716v-12.345z" class="cls-3" data-name="Path 482" transform="translate(-214.133)"/>
        <path id="Path_483" d="M631.944 160.494v3.086h-3.087v6.173h3.087v3.087h-7.716v-12.346z" class="cls-3" data-name="Path 483" transform="translate(-214.133)"/>
        <path id="Path_484" d="M631.944 239.2v3.086h-3.087v6.173h3.087v3.086h-7.716V239.2z" class="cls-3" data-name="Path 484" transform="translate(-214.133)"/>
        <path id="Rectangle_381" d="M0 0h7.716v12.346H0z" class="cls-3" data-name="Rectangle 381" transform="translate(322.132 200.617)"/>
        <path id="Rectangle_382" d="M0 0h7.716v12.346H0z" class="cls-3" data-name="Rectangle 382" transform="translate(322.132 220.679)"/>
        <path id="Rectangle_383" d="M0 0h10.802v1.543H0z" class="cls-3" data-name="Rectangle 383" transform="translate(322.132 242.284)"/>
        <path id="Rectangle_384" d="M0 0h10.802v1.543H0z" class="cls-3" data-name="Rectangle 384" transform="translate(322.132 341.049)"/>
        <path id="Rectangle_385" d="M0 0h10.802v1.543H0z" class="cls-3" data-name="Rectangle 385" transform="translate(322.132 358.025)"/>
        <path id="Path_485" d="M719.907 256.173v3.086h-3.087v6.173h3.087v3.087h-7.716v-12.346z" class="cls-3" data-name="Path 485" transform="translate(-390.059)"/>
        <path id="Path_486" d="M719.907 294.753v3.087h-3.087v6.172h3.087v3.088h-7.716v-12.347z" class="cls-3" data-name="Path 486" transform="translate(-390.059)"/>
        <path id="Path_487" d="M719.907 373.457v3.086h-3.087v6.173h3.087v3.084h-7.716v-12.343z" class="cls-3" data-name="Path 487" transform="translate(-390.059)"/>
        <path id="Rectangle_386" d="M0 0h827.604v2.554H0z" class="cls-4" data-name="Rectangle 386" transform="translate(0 706.534)"/>
        <path id="Path_488" d="M486.8 499.8v52l-7 32s1 20 0 26 1 16 7 16 9 15 9 15 2 6 7 7 5 0 5 0l4 10 83 55-16 40s-25-9-27-12-19 4-19-3-3-25-9-26-56-24-56-24-26-29-28-40-11-42-11-42l-25 42v84l4 45-44-6s4-28 0-32-10-52-6-58-2-33 0-37 1-33 6-41 35-90 35-90z" class="cls-4" data-name="Path 488" transform="translate(169.739 -95.456)"/>
        <path id="Path_489" d="M629.043 774.8s15 25 5 28-29 0-31 0-38 1-38 1-24-5-24-12 15-7 20-8 36-13 36-13z" class="cls-4" data-name="Path 489" transform="translate(-57.504 -95.456)"/>
        <path id="Path_490" d="M355.668 713.923s28.9-3.828 27.681 6.541-11.527 26.611-12.322 28.446c-.538 1.243-6.854 16.978-10.875 27.006a58.476 58.476 0 0 1-12.835 19.652c-3.931 3.929-8.216 7.079-11.026 5.862-6.423-2.782-.461-16.547.608-21.532s2.38-38.2 2.38-38.2z" class="cls-4" data-name="Path 490" transform="translate(404.278 -95.456)"/>
        <path id="Path_491" d="M471.592 334.3l-32-74s3-7 10-6c0 0 9.5-24.5 27.5-24.5 0 0 27-15 35 0 0 0 17 15 16 29s-2 24-2 24 16 2 13 10-4 8 0 11l4 3s83 75 37 185l-4 17v16s-101 1-101 0 2-7-2-11-4-10-4-10 4-20 2-26-3-32 1-38 2-54 2-54l-9-17 3-10 3-10z" class="cls-5" data-name="Path 491" transform="translate(87.448 -95.456)"/>
        <path id="Path_492" d="M477.909 534.8s12-33 11-39 2-18 2-18l4-81s-17-72 21-84c0 0 9.615 4.2 17.494 17.7 7.791 3.47 17.244 12.252 19.506 34.3 4 39-14 139-23 156s-15 29-15 29l-9.406-4.181-.594 1.181z" class="cls-6" data-name="Path 492" transform="translate(89.63 -95.456)"/>
        <ellipse id="Ellipse_31" cx="3" cy="3" class="cls-7" data-name="Ellipse 31" rx="3" ry="3" transform="translate(559.039 223.839)"/>
        <path id="Rectangle_387" d="M0 0h2v47H0z" class="cls-2" data-name="Rectangle 387" transform="translate(561.039 226.839)"/>
        <path id="Path_493" d="M548.98 538.3l-8 17s-18-6-18-9 8-16 8-16z" class="cls-8" data-name="Path 493" transform="translate(49.059 -95.456)"/>
        <path id="Path_494" d="M521.909 312.8s23 10 27 49-14 139-23 156-15 29-15 29l-27-12s12-33 11-39 2-18 2-18l4-81s-17-72 21-84z" class="cls-5" data-name="Path 494" transform="translate(87.63 -95.456)"/>
    </g>
</svg>
